# xmcd
#
# Track frame offsets:
#	150
#	17795
#	38396
#	58639
#	80076
#	96614
#	117224
#	139606
#	159186
#	181483
#	200928
#
# Disc length: 2947 seconds
#
# Revision: 0
# Processed by: cddbd v1.5.2PL0 Copyright (c) Steve Scherf et al.
# Submitted via: EasyCDDAExtractor 4.6.0.1
#
DISCID=930b810b
DTITLE=Kim Richardson - Kaleidoscope
DYEAR=2006
DGENRE=
TTITLE0=Gotta Feel It
TTITLE1=Héros
TTITLE2=Six jours
TTITLE3=Deep Down Inside
TTITLE4=Turn It Up
TTITLE5=Dire oui à la vie
TTITLE6=À l'intérieur
TTITLE7=Handle with Care
TTITLE8=Au bout de toi
TTITLE9=Backup Singers' Blues
TTITLE10=Out Here on my Own
EXTD=
EXTT0=
EXTT1=
EXTT2=
EXTT3=
EXTT4=
EXTT5=
EXTT6=
EXTT7=
EXTT8=
EXTT9=
EXTT10=
PLAYORDER=
